<?xml version="1.0" encoding="iso-8859-1"?><svg viewBox="0 0 512 512" xmlns="http://www.w3.org/2000/svg" xmlns:xlink="http://www.w3.org/1999/xlink"><style>:root>svg{display:none}:root>svg:target{display:block}</style><svg viewBox="0 0 330 330" id="down-arrow" xmlns="http://www.w3.org/2000/svg"><path d="M325.607 79.393c-5.857-5.857-15.355-5.858-21.213.001l-139.39 139.393L25.607 79.393c-5.857-5.857-15.355-5.858-21.213.001-5.858 5.858-5.858 15.355 0 21.213l150.004 150a14.999 14.999 0 0021.212-.001l149.996-150c5.859-5.857 5.859-15.355.001-21.213z"/></svg><svg viewBox="0 0 16 16.003" id="inst" xmlns="http://www.w3.org/2000/svg"><g><path d="M15.96 4.7a5.848 5.848 0 00-.372-1.941A4.1 4.1 0 0013.246.422 5.863 5.863 0 0011.305.05C10.451.009 10.176 0 8.003 0s-2.445.009-3.3.047a5.849 5.849 0 00-1.939.372 3.9 3.9 0 00-1.419.925A3.94 3.94 0 00.422 2.76 5.863 5.863 0 00.051 4.7C.01 5.558 0 5.83 0 8s.01 2.448.051 3.3a5.847 5.847 0 00.372 1.941 4.1 4.1 0 002.338 2.343 5.863 5.863 0 001.941.372C5.551 15.994 5.828 16 8 16s2.445-.009 3.3-.047a5.846 5.846 0 001.941-.372 4.093 4.093 0 002.342-2.341 5.867 5.867 0 00.368-1.94c.037-.853.047-1.125.047-3.3s-.001-2.442-.038-3.3zm-1.441 6.534a4.386 4.386 0 01-.275 1.485 2.655 2.655 0 01-1.519 1.519 4.4 4.4 0 01-1.485.275c-.844.038-1.1.047-3.232.047s-2.392-.009-3.233-.047a4.384 4.384 0 01-1.485-.275 2.463 2.463 0 01-.919-.6 2.488 2.488 0 01-.6-.919 4.4 4.4 0 01-.275-1.485c-.038-.844-.047-1.1-.047-3.233s.009-2.392.047-3.232a4.384 4.384 0 01.275-1.485 2.432 2.432 0 01.6-.919 2.484 2.484 0 01.919-.6A4.4 4.4 0 014.777 1.5c.844-.037 1.1-.047 3.232-.047s2.392.009 3.233.047a4.386 4.386 0 011.485.275 2.461 2.461 0 01.919.6 2.487 2.487 0 01.6.919 4.4 4.4 0 01.275 1.485c.037.844.047 1.1.047 3.232s-.017 2.384-.05 3.228zm0 0"/><path d="M8.003 3.892a4.111 4.111 0 104.111 4.111 4.112 4.112 0 00-4.111-4.111zm0 6.778a2.667 2.667 0 112.667-2.667 2.667 2.667 0 01-2.667 2.667zm0 0"/><path d="M13.237 3.729a.96.96 0 11-.96-.96.96.96 0 01.96.96zm0 0"/></g></svg><svg viewBox="0 0 512 512" id="wraning" xmlns="http://www.w3.org/2000/svg"><path d="M505.403 406.394L295.389 58.102c-8.274-13.721-23.367-22.245-39.39-22.245s-31.116 8.524-39.391 22.246L6.595 406.394c-8.551 14.182-8.804 31.95-.661 46.37 8.145 14.42 23.491 23.378 40.051 23.378h420.028c16.56 0 31.907-8.958 40.052-23.379 8.143-14.421 7.89-32.189-.662-46.369zm-28.364 29.978a12.684 12.684 0 01-11.026 6.436H45.985a12.68 12.68 0 01-11.025-6.435 12.683 12.683 0 01.181-12.765L245.156 75.316A12.732 12.732 0 01256 69.192c4.41 0 8.565 2.347 10.843 6.124l210.013 348.292a12.677 12.677 0 01.183 12.764z"/><path d="M256.154 173.005c-12.68 0-22.576 6.804-22.576 18.866 0 36.802 4.329 89.686 4.329 126.489.001 9.587 8.352 13.607 18.248 13.607 7.422 0 17.937-4.02 17.937-13.607 0-36.802 4.329-89.686 4.329-126.489 0-12.061-10.205-18.866-22.267-18.866zM256.465 353.306c-13.607 0-23.814 10.824-23.814 23.814 0 12.68 10.206 23.814 23.814 23.814 12.68 0 23.505-11.134 23.505-23.814 0-12.99-10.826-23.814-23.505-23.814z"/></svg></svg>